<?xml version="1.0" encoding="UTF-8"?>
<svg width="32" height="32" viewBox="0 0 32 32" fill="none" xmlns="http://www.w3.org/2000/svg">
  <rect width="32" height="32" fill="#E5E7EB"/>
  <path d="M16 8C12.6863 8 10 10.6863 10 14C10 17.3137 12.6863 20 16 20C19.3137 20 22 17.3137 22 14C22 10.6863 19.3137 8 16 8ZM16 18C13.7909 18 12 16.2091 12 14C12 11.7909 13.7909 10 16 10C18.2091 10 20 11.7909 20 14C20 16.2091 18.2091 18 16 18Z" fill="#9CA3AF"/>
  <path d="M16 22C11.5817 22 8 25.5817 8 30H24C24 25.5817 20.4183 22 16 22ZM16 24C19.3137 24 22 26.6863 22 30H10C10 26.6863 12.6863 24 16 24Z" fill="#9CA3AF"/>
</svg> 